<?xml version="1.0" encoding="UTF-8"?>
<!DOCTYPE svg PUBLIC "-//W3C//DTD SVG 1.1//EN" "http://www.w3.org/Graphics/SVG/1.1/DTD/svg11.dtd">
<svg xmlns="http://www.w3.org/2000/svg" version="1.1" width="2346px" height="2346px" style="shape-rendering:geometricPrecision; text-rendering:geometricPrecision; image-rendering:optimizeQuality; fill-rule:evenodd; clip-rule:evenodd" xmlns:xlink="http://www.w3.org/1999/xlink">
<g><path style="opacity:0.983" fill="#5c99ea" d="M 1414.5,695.5 C 1416.33,770.16 1417.16,845.16 1417,920.5C 1431.88,898.623 1450.38,880.456 1472.5,866C 1480.13,862.011 1488.13,859.011 1496.5,857C 1533.5,856.167 1570.5,856.333 1607.5,857.5C 1592.64,879.856 1573.98,898.356 1551.5,913C 1544.67,917.413 1537.34,920.746 1529.5,923C 1491.83,923.333 1454.17,923.667 1416.5,924C 1395.97,944.198 1375.14,964.032 1354,983.5C 1353.33,913.5 1353.33,843.5 1354,773.5C 1359.49,750.687 1370.99,731.52 1388.5,716C 1397.05,708.906 1405.72,702.073 1414.5,695.5 Z"/></g>
<g><path style="opacity:0.986" fill="#175bbb" d="M 532.5,849.5 C 546.837,849.333 561.171,849.5 575.5,850C 583.333,852.5 588.5,857.667 591,865.5C 591.667,879.833 591.667,894.167 591,908.5C 588.5,916.333 583.333,921.5 575.5,924C 561.167,924.667 546.833,924.667 532.5,924C 524.667,921.5 519.5,916.333 517,908.5C 516.333,894.167 516.333,879.833 517,865.5C 519.685,857.65 524.852,852.316 532.5,849.5 Z"/></g>
<g><path style="opacity:0.982" fill="#175bbb" d="M 762.5,953.5 C 791.512,953.003 819.346,958.336 846,969.5C 843.359,992.347 839.525,1015.01 834.5,1037.5C 809.192,1021.27 781.858,1016.44 752.5,1023C 710.152,1037.53 693.652,1066.69 703,1110.5C 709.592,1129.43 722.092,1142.93 740.5,1151C 780.834,1165.09 819.167,1160.93 855.5,1138.5C 856.666,1163.16 856.833,1187.83 856,1212.5C 807.499,1231.82 758.666,1232.98 709.5,1216C 658.064,1194.66 629.897,1156.16 625,1100.5C 621.825,1053.38 637.992,1014.55 673.5,984C 700.224,965.148 729.891,954.981 762.5,953.5 Z"/></g>
<g><path style="opacity:1" fill="#175bbb" d="M 516.5,959.5 C 541.167,959.5 565.833,959.5 590.5,959.5C 590.5,1047.17 590.5,1134.83 590.5,1222.5C 565.833,1222.5 541.167,1222.5 516.5,1222.5C 516.5,1134.83 516.5,1047.17 516.5,959.5 Z"/></g>
<g><path style="opacity:0.988" fill="#175bbb" d="M 1572.5,959.5 C 1597.5,959.5 1622.5,959.5 1647.5,959.5C 1647.33,1010.17 1647.5,1060.83 1648,1111.5C 1649.22,1129.78 1657.05,1144.28 1671.5,1155C 1680.35,1159.97 1689.85,1162.14 1700,1161.5C 1725.66,1162.17 1741.99,1150.17 1749,1125.5C 1750.81,1117.94 1751.81,1110.28 1752,1102.5C 1752.5,1054.83 1752.67,1007.17 1752.5,959.5C 1777.5,959.5 1802.5,959.5 1827.5,959.5C 1827.67,1011.5 1827.5,1063.5 1827,1115.5C 1821.71,1182.12 1785.88,1219.29 1719.5,1227C 1685.67,1231.23 1653.67,1225.57 1623.5,1210C 1592.7,1189.6 1575.87,1160.77 1573,1123.5C 1572.5,1068.83 1572.33,1014.17 1572.5,959.5 Z"/></g>
<g><path style="opacity:0.987" fill="#175bbb" d="M 1271.5,1015.5 C 1284.13,1015.66 1296.47,1017.66 1308.5,1021.5C 1309.83,1042.5 1309.83,1063.5 1308.5,1084.5C 1287.56,1071.67 1266.56,1071.51 1245.5,1084C 1229.83,1096.63 1222,1113.13 1222,1133.5C 1221.5,1163.16 1221.33,1192.83 1221.5,1222.5C 1196.83,1222.5 1172.17,1222.5 1147.5,1222.5C 1147.5,1155.5 1147.5,1088.5 1147.5,1021.5C 1150.85,1021.33 1154.18,1021.5 1157.5,1022C 1171.09,1033.05 1184.59,1044.21 1198,1055.5C 1215.83,1030 1240.33,1016.67 1271.5,1015.5 Z"/></g>
<g><path style="opacity:0.985" fill="#175bbb" d="M 959.5,1016.5 C 991.941,1012.94 1020.61,1021.44 1045.5,1042C 1050.69,1047.69 1055.69,1053.52 1060.5,1059.5C 1075.31,1047.19 1089.98,1034.69 1104.5,1022C 1107.82,1021.5 1111.15,1021.33 1114.5,1021.5C 1114.5,1088.5 1114.5,1155.5 1114.5,1222.5C 1089.83,1222.5 1065.17,1222.5 1040.5,1222.5C 1040.5,1203.5 1040.5,1184.5 1040.5,1165.5C 1039.5,1165.5 1038.5,1165.5 1037.5,1165.5C 1027.75,1205.48 1002.25,1226.48 961,1228.5C 916.895,1226.27 888.561,1203.94 876,1161.5C 870.453,1138.23 870.119,1114.9 875,1091.5C 887.793,1049.04 915.96,1024.04 959.5,1016.5 Z M 990.5,1072.5 C 1023.17,1072.33 1041.17,1088.5 1044.5,1121C 1042.21,1150.62 1026.38,1167.12 997,1170.5C 967.814,1167.15 951.98,1150.81 949.5,1121.5C 951.26,1095.08 964.927,1078.75 990.5,1072.5 Z"/></g>
<g><path style="opacity:0.983" fill="#175bbb" d="M 1418.5,1016.5 C 1457.71,1012.4 1490.87,1024.4 1518,1052.5C 1538.9,1078 1546.24,1107 1540,1139.5C 1490.91,1140.5 1441.74,1140.83 1392.5,1140.5C 1398.87,1159.02 1411.87,1169.85 1431.5,1173C 1459.96,1177.06 1486.8,1172.23 1512,1158.5C 1515.65,1176.06 1518.32,1193.73 1520,1211.5C 1495.84,1223 1470.34,1228.33 1443.5,1227.5C 1413.17,1228.92 1385.83,1220.76 1361.5,1203C 1326.59,1170.55 1316.09,1131.39 1330,1085.5C 1346.2,1045.48 1375.7,1022.48 1418.5,1016.5 Z M 1427.5,1070.5 C 1447.24,1068.46 1462.74,1075.46 1474,1091.5C 1477.46,1097.38 1478.96,1103.71 1478.5,1110.5C 1448.83,1110.67 1419.16,1110.5 1389.5,1110C 1393.94,1088.73 1406.61,1075.56 1427.5,1070.5 Z"/></g>
<g><path style="opacity:0.976" fill="#175bbb" d="M 519.5,1290.5 C 522.5,1290.5 525.5,1290.5 528.5,1290.5C 528.5,1295.83 528.5,1301.17 528.5,1306.5C 534.167,1306.5 539.833,1306.5 545.5,1306.5C 545.5,1301.17 545.5,1295.83 545.5,1290.5C 548.5,1290.5 551.5,1290.5 554.5,1290.5C 554.5,1304.5 554.5,1318.5 554.5,1332.5C 551.5,1332.5 548.5,1332.5 545.5,1332.5C 545.5,1326.5 545.5,1320.5 545.5,1314.5C 539.833,1314.5 534.167,1314.5 528.5,1314.5C 528.5,1320.5 528.5,1326.5 528.5,1332.5C 525.5,1332.5 522.5,1332.5 519.5,1332.5C 519.5,1318.5 519.5,1304.5 519.5,1290.5 Z"/></g>
<g><path style="opacity:0.934" fill="#175bbb" d="M 602.5,1290.5 C 605.5,1290.5 608.5,1290.5 611.5,1290.5C 611.5,1304.5 611.5,1318.5 611.5,1332.5C 608.5,1332.5 605.5,1332.5 602.5,1332.5C 602.5,1318.5 602.5,1304.5 602.5,1290.5 Z"/></g>
<g><path style="opacity:0.886" fill="#175bbb" d="M 662.5,1290.5 C 665.5,1290.5 668.5,1290.5 671.5,1290.5C 671.5,1293.17 671.5,1295.83 671.5,1298.5C 668.5,1298.5 665.5,1298.5 662.5,1298.5C 662.5,1295.83 662.5,1293.17 662.5,1290.5 Z"/></g>
<g><path style="opacity:0.907" fill="#175bbb" d="M 781.5,1290.5 C 790.173,1290.33 798.84,1290.5 807.5,1291C 815.095,1294.47 817.595,1300.31 815,1308.5C 813.833,1312.33 811.333,1314.83 807.5,1316C 802.177,1316.5 796.844,1316.67 791.5,1316.5C 791.5,1321.83 791.5,1327.17 791.5,1332.5C 788.167,1332.5 784.833,1332.5 781.5,1332.5C 781.5,1318.5 781.5,1304.5 781.5,1290.5 Z M 791.5,1298.5 C 795.182,1298.33 798.848,1298.5 802.5,1299C 805.203,1300.82 806.036,1303.32 805,1306.5C 804.25,1307.13 803.416,1307.63 802.5,1308C 798.848,1308.5 795.182,1308.67 791.5,1308.5C 791.5,1305.17 791.5,1301.83 791.5,1298.5 Z"/></g>
<g><path style="opacity:0.888" fill="#175bbb" d="M 1044.5,1290.5 C 1047.83,1290.5 1051.17,1290.5 1054.5,1290.5C 1054.5,1301.83 1054.5,1313.17 1054.5,1324.5C 1061.83,1324.5 1069.17,1324.5 1076.5,1324.5C 1076.5,1327.17 1076.5,1329.83 1076.5,1332.5C 1065.83,1332.5 1055.17,1332.5 1044.5,1332.5C 1044.5,1318.5 1044.5,1304.5 1044.5,1290.5 Z"/></g>
<g><path style="opacity:0.886" fill="#175bbb" d="M 1084.5,1290.5 C 1087.5,1290.5 1090.5,1290.5 1093.5,1290.5C 1093.5,1293.17 1093.5,1295.83 1093.5,1298.5C 1090.5,1298.5 1087.5,1298.5 1084.5,1298.5C 1084.5,1295.83 1084.5,1293.17 1084.5,1290.5 Z"/></g>
<g><path style="opacity:0.905" fill="#175bbb" d="M 971.5,1291.5 C 972.5,1291.5 973.5,1291.5 974.5,1291.5C 974.5,1294.83 974.5,1298.17 974.5,1301.5C 976.5,1301.5 978.5,1301.5 980.5,1301.5C 980.5,1303.83 980.5,1306.17 980.5,1308.5C 978.5,1308.5 976.5,1308.5 974.5,1308.5C 974.334,1313.84 974.501,1319.18 975,1324.5C 976.458,1325.75 977.958,1325.75 979.5,1324.5C 980.48,1327.09 980.813,1329.75 980.5,1332.5C 975.456,1334.29 970.789,1333.62 966.5,1330.5C 965.535,1323.22 965.201,1315.89 965.5,1308.5C 964.167,1308.5 962.833,1308.5 961.5,1308.5C 961.5,1306.17 961.5,1303.83 961.5,1301.5C 962.833,1301.5 964.167,1301.5 965.5,1301.5C 965.338,1299.47 965.505,1297.47 966,1295.5C 968.015,1294.3 969.849,1292.97 971.5,1291.5 Z"/></g>
<g><path style="opacity:0.897" fill="#175bbb" d="M 576.5,1300.5 C 588.86,1300.86 594.526,1307.19 593.5,1319.5C 586.492,1319.33 579.492,1319.5 572.5,1320C 574.078,1325.46 577.411,1327.12 582.5,1325C 583.191,1323.93 583.691,1322.77 584,1321.5C 595.418,1321.87 596.251,1325.37 586.5,1332C 567.614,1335.11 560.448,1327.28 565,1308.5C 567.772,1304.21 571.605,1301.54 576.5,1300.5 Z M 575.5,1308.5 C 580.093,1307.42 583.093,1309.08 584.5,1313.5C 580.893,1314.49 577.226,1314.82 573.5,1314.5C 573.253,1312.14 573.919,1310.14 575.5,1308.5 Z"/></g>
<g><path style="opacity:0.882" fill="#175bbb" d="M 638.5,1300.5 C 651.022,1302.51 655.855,1309.84 653,1322.5C 648.894,1332.87 641.894,1335.53 632,1330.5C 631.501,1334.82 631.334,1339.15 631.5,1343.5C 628.167,1343.5 624.833,1343.5 621.5,1343.5C 621.5,1329.5 621.5,1315.5 621.5,1301.5C 624.5,1301.5 627.5,1301.5 630.5,1301.5C 630.351,1302.55 630.517,1303.55 631,1304.5C 633.255,1302.5 635.755,1301.17 638.5,1300.5 Z M 634.5,1308.5 C 640.704,1307.87 644.037,1310.7 644.5,1317C 644.203,1322.97 641.203,1325.64 635.5,1325C 633.667,1324.5 632.5,1323.33 632,1321.5C 630.842,1316.69 631.676,1312.36 634.5,1308.5 Z"/></g>
<g><path style="opacity:0.877" fill="#175bbb" d="M 698.5,1300.5 C 704.364,1299.99 708.531,1302.32 711,1307.5C 711.5,1315.83 711.666,1324.16 711.5,1332.5C 708.5,1332.5 705.5,1332.5 702.5,1332.5C 702.666,1325.83 702.5,1319.16 702,1312.5C 699.24,1307.5 695.907,1307.17 692,1311.5C 691.5,1318.49 691.334,1325.49 691.5,1332.5C 688.167,1332.5 684.833,1332.5 681.5,1332.5C 681.5,1322.17 681.5,1311.83 681.5,1301.5C 684.5,1301.5 687.5,1301.5 690.5,1301.5C 690.351,1302.55 690.517,1303.55 691,1304.5C 693.255,1302.5 695.755,1301.17 698.5,1300.5 Z"/></g>
<g><path style="opacity:0.903" fill="#175bbb" d="M 732.5,1300.5 C 735.785,1300.74 738.785,1301.74 741.5,1303.5C 744.556,1301.71 747.889,1301.04 751.5,1301.5C 751.667,1313.17 751.5,1324.84 751,1336.5C 749.73,1340.77 746.896,1343.27 742.5,1344C 738.167,1344.67 733.833,1344.67 729.5,1344C 723.561,1342.9 720.894,1339.4 721.5,1333.5C 724.874,1333.67 728.207,1334.17 731.5,1335C 735.147,1338.42 738.647,1338.26 742,1334.5C 742.667,1332.83 742.667,1331.17 742,1329.5C 732.812,1334.9 725.812,1332.9 721,1323.5C 720.333,1318.83 720.333,1314.17 721,1309.5C 723.345,1304.43 727.179,1301.43 732.5,1300.5 Z M 732.5,1308.5 C 737.27,1307.46 740.436,1309.13 742,1313.5C 743.477,1319.62 741.31,1323.62 735.5,1325.5C 730.171,1323.17 728.338,1319.17 730,1313.5C 730.366,1311.55 731.199,1309.88 732.5,1308.5 Z"/></g>
<g><path style="opacity:0.881" fill="#175bbb" d="M 835.5,1300.5 C 840.726,1300.51 845.56,1301.84 850,1304.5C 851.235,1312.42 851.902,1320.42 852,1328.5C 852.309,1329.77 852.809,1330.93 853.5,1332C 849.577,1332.98 845.91,1332.48 842.5,1330.5C 836.632,1334.45 830.799,1334.45 825,1330.5C 820.857,1323.6 822.357,1318.44 829.5,1315C 833.933,1314.15 838.267,1312.98 842.5,1311.5C 841.548,1309.49 839.881,1308.49 837.5,1308.5C 834.672,1309.25 832.005,1310.25 829.5,1311.5C 827.291,1311.43 825.291,1310.76 823.5,1309.5C 825.723,1304.06 829.723,1301.06 835.5,1300.5 Z M 839.5,1318.5 C 840.5,1318.5 841.5,1318.5 842.5,1318.5C 842.588,1324.95 839.588,1327.28 833.5,1325.5C 832.386,1324.28 832.219,1322.94 833,1321.5C 835.166,1320.27 837.333,1319.27 839.5,1318.5 Z"/></g>
<g><path style="opacity:0.924" fill="#175bbb" d="M 875.5,1300.5 C 883.405,1300.99 884.738,1304.32 879.5,1310.5C 876.709,1308.96 874.209,1309.29 872,1311.5C 870.616,1318.41 870.116,1325.41 870.5,1332.5C 867.5,1332.5 864.5,1332.5 861.5,1332.5C 861.5,1322.17 861.5,1311.83 861.5,1301.5C 864.167,1301.5 866.833,1301.5 869.5,1301.5C 869.351,1302.55 869.517,1303.55 870,1304.5C 871.5,1302.53 873.333,1301.2 875.5,1300.5 Z"/></g>
<g><path style="opacity:0.903" fill="#175bbb" d="M 898.5,1300.5 C 910.835,1300.84 916.501,1307.17 915.5,1319.5C 908.833,1319.5 902.167,1319.5 895.5,1319.5C 896.087,1325.46 899.087,1327.29 904.5,1325C 905.211,1323.75 906.044,1322.58 907,1321.5C 916.668,1321.8 917.835,1324.97 910.5,1331C 891.236,1336.4 883.403,1329.24 887,1309.5C 889.568,1304.75 893.401,1301.75 898.5,1300.5 Z M 898.5,1308.5 C 903.451,1307.63 906.118,1309.63 906.5,1314.5C 902.833,1314.5 899.167,1314.5 895.5,1314.5C 895.461,1311.91 896.461,1309.91 898.5,1308.5 Z"/></g>
<g><path style="opacity:0.884" fill="#175bbb" d="M 941.5,1300.5 C 946.049,1300.59 949.883,1302.26 953,1305.5C 954.414,1314.42 954.914,1323.42 954.5,1332.5C 951.167,1332.5 947.833,1332.5 944.5,1332.5C 944.666,1325.16 944.5,1317.83 944,1310.5C 940.661,1307.7 937.661,1308.03 935,1311.5C 933.77,1318.45 933.27,1325.45 933.5,1332.5C 930.5,1332.5 927.5,1332.5 924.5,1332.5C 924.5,1322.17 924.5,1311.83 924.5,1301.5C 927.5,1301.5 930.5,1301.5 933.5,1301.5C 933.351,1302.55 933.517,1303.55 934,1304.5C 936.255,1302.5 938.755,1301.17 941.5,1300.5 Z"/></g>
<g><path style="opacity:0.877" fill="#175bbb" d="M 997.5,1300.5 C 1005.18,1299.67 1010.84,1302.5 1014.5,1309C 1011.98,1310.15 1009.32,1310.98 1006.5,1311.5C 1005.02,1310.52 1003.69,1309.35 1002.5,1308C 1000.5,1307.33 998.5,1307.33 996.5,1308C 996.043,1308.41 995.709,1308.91 995.5,1309.5C 1001.79,1311.66 1007.96,1314.33 1014,1317.5C 1016.07,1327.95 1011.57,1333.29 1000.5,1333.5C 992.84,1333.68 987.507,1330.35 984.5,1323.5C 989.857,1320.45 994.19,1321.28 997.5,1326C 1000.35,1326.94 1002.85,1326.44 1005,1324.5C 1005.69,1323.67 1005.52,1323 1004.5,1322.5C 1000.51,1321.33 996.506,1320.17 992.5,1319C 989.943,1318.31 988.109,1316.81 987,1314.5C 986.183,1311.04 986.517,1307.7 988,1304.5C 991.005,1302.49 994.171,1301.15 997.5,1300.5 Z"/></g>
<g><path style="opacity:0.901" fill="#175bbb" d="M 1151.5,1300.5 C 1163.81,1300.81 1169.47,1307.14 1168.5,1319.5C 1161.47,1319.17 1154.47,1319.5 1147.5,1320.5C 1151.06,1327.77 1154.89,1328.11 1159,1321.5C 1162.19,1322.15 1165.36,1322.98 1168.5,1324C 1163.45,1332.58 1156.11,1335.24 1146.5,1332C 1138.89,1326.79 1136.39,1319.63 1139,1310.5C 1141.33,1304.65 1145.5,1301.32 1151.5,1300.5 Z M 1150.5,1308.5 C 1155.09,1307.42 1158.09,1309.08 1159.5,1313.5C 1155.54,1314.66 1151.54,1314.83 1147.5,1314C 1148.22,1311.98 1149.22,1310.15 1150.5,1308.5 Z"/></g>
<g><path style="opacity:0.922" fill="#175bbb" d="M 662.5,1301.5 C 665.5,1301.5 668.5,1301.5 671.5,1301.5C 671.5,1311.83 671.5,1322.17 671.5,1332.5C 668.5,1332.5 665.5,1332.5 662.5,1332.5C 662.5,1322.17 662.5,1311.83 662.5,1301.5 Z"/></g>
<g><path style="opacity:0.922" fill="#175bbb" d="M 1084.5,1301.5 C 1087.5,1301.5 1090.5,1301.5 1093.5,1301.5C 1093.5,1311.83 1093.5,1322.17 1093.5,1332.5C 1090.5,1332.5 1087.5,1332.5 1084.5,1332.5C 1084.5,1322.17 1084.5,1311.83 1084.5,1301.5 Z"/></g>
<g><path style="opacity:0.882" fill="#175bbb" d="M 1100.5,1301.5 C 1103.78,1301.22 1106.94,1301.55 1110,1302.5C 1112.07,1308.31 1114.41,1313.98 1117,1319.5C 1119.47,1313.58 1121.63,1307.58 1123.5,1301.5C 1126.9,1301.18 1130.23,1301.51 1133.5,1302.5C 1129.5,1312.17 1125.5,1321.83 1121.5,1331.5C 1118.29,1332.79 1115.12,1332.79 1112,1331.5C 1107.86,1321.58 1104.03,1311.58 1100.5,1301.5 Z"/></g>
</svg>
